<?xml version="1.0" encoding="UTF-8"?>
<svg xmlns="http://www.w3.org/2000/svg" xmlns:xlink="http://www.w3.org/1999/xlink" width="39px" height="24px" viewBox="0 0 39 24" version="1.1">
<g id="surface1">
<path style=" stroke:none;fill-rule:nonzero;fill:rgb(4.313726%,67.058825%,99.607843%);fill-opacity:1;" d="M 0 0 C 12.871094 0 25.738281 0 39 0 C 39 7.921875 39 15.839844 39 24 C 26.128906 24 13.261719 24 0 24 C 0 16.078125 0 8.160156 0 0 Z M 0 0 "/>
<path style=" stroke:none;fill-rule:nonzero;fill:rgb(4.705882%,66.666669%,99.607843%);fill-opacity:1;" d="M 0 0 C 12.871094 0 25.738281 0 39 0 C 39 3.015625 39 6.03125 39 9.140625 C 26.128906 9.140625 13.261719 9.140625 0 9.140625 C 0 6.125 0 3.105469 0 0 Z M 0 0 "/>
<path style=" stroke:none;fill-rule:nonzero;fill:rgb(6.27451%,6.27451%,6.27451%);fill-opacity:1;" d="M 0 9.140625 C 12.871094 9.140625 25.738281 9.140625 39 9.140625 C 39 10.949219 39 12.757812 39 14.621094 C 26.128906 14.621094 13.261719 14.621094 0 14.621094 C 0 12.8125 0 11.003906 0 9.140625 Z M 0 9.140625 "/>
<path style=" stroke:none;fill-rule:nonzero;fill:rgb(94.901961%,96.862745%,97.254902%);fill-opacity:1;" d="M 0 14.621094 C 12.871094 14.621094 25.738281 14.621094 39 14.621094 C 39 15.09375 39 15.566406 39 16.054688 C 26.128906 16.054688 13.261719 16.054688 0 16.054688 C 0 15.582031 0 15.109375 0 14.621094 Z M 0 14.621094 "/>
<path style=" stroke:none;fill-rule:nonzero;fill:rgb(98.039216%,99.215686%,99.607843%);fill-opacity:1;" d="M 0 7.789062 C 12.871094 7.789062 25.738281 7.789062 39 7.789062 C 39 8.234375 39 8.679688 39 9.140625 C 26.128906 9.140625 13.261719 9.140625 0 9.140625 C 0 8.691406 0 8.246094 0 7.789062 Z M 0 7.789062 "/>
<path style=" stroke:none;fill-rule:nonzero;fill:rgb(8.235294%,65.882355%,97.254902%);fill-opacity:1;" d="M 0 16.054688 C 12.871094 16.054688 25.738281 16.054688 39 16.054688 C 39 16.15625 39 16.261719 39 16.371094 C 26.128906 16.371094 13.261719 16.371094 0 16.371094 C 0 16.265625 0 16.160156 0 16.054688 Z M 0 16.054688 "/>
</g>
</svg>
